<svg width="24" height="25" viewBox="0 0 24 25" fill="none" xmlns="http://www.w3.org/2000/svg">
<path d="M12 1.75C12.4142 1.75 12.75 2.08579 12.75 2.5V3.5C12.75 3.91421 12.4142 4.25 12 4.25C11.5858 4.25 11.25 3.91421 11.25 3.5V2.5C11.25 2.08579 11.5858 1.75 12 1.75Z" fill="#BE8A5A"/>
<path fill-rule="evenodd" clip-rule="evenodd" d="M6.25 12.5C6.25 9.32436 8.82436 6.75 12 6.75C15.1756 6.75 17.75 9.32436 17.75 12.5C17.75 15.6756 15.1756 18.25 12 18.25C8.82436 18.25 6.25 15.6756 6.25 12.5ZM12 8.25C9.65279 8.25 7.75 10.1528 7.75 12.5C7.75 14.8472 9.65279 16.75 12 16.75C14.3472 16.75 16.25 14.8472 16.25 12.5C16.25 10.1528 14.3472 8.25 12 8.25Z" fill="#BE8A5A"/>
<path d="M5.45929 4.89862C5.16639 4.60573 4.69152 4.60573 4.39863 4.89862C4.10573 5.19152 4.10573 5.66639 4.39863 5.95929L5.10573 6.66639C5.39863 6.95929 5.8735 6.95929 6.16639 6.66639C6.45929 6.3735 6.45929 5.89862 6.16639 5.60573L5.45929 4.89862Z" fill="#BE8A5A"/>
<path d="M22.75 12.5C22.75 12.9142 22.4142 13.25 22 13.25H21C20.5858 13.25 20.25 12.9142 20.25 12.5C20.25 12.0858 20.5858 11.75 21 11.75H22C22.4142 11.75 22.75 12.0858 22.75 12.5Z" fill="#BE8A5A"/>
<path d="M19.6014 5.95929C19.8943 5.66639 19.8943 5.19152 19.6014 4.89863C19.3085 4.60573 18.8336 4.60573 18.5407 4.89863L17.8336 5.60573C17.5407 5.89863 17.5407 6.3735 17.8336 6.66639C18.1265 6.95929 18.6014 6.95929 18.8943 6.66639L19.6014 5.95929Z" fill="#BE8A5A"/>
<path d="M12 20.75C12.4142 20.75 12.75 21.0858 12.75 21.5V22.5C12.75 22.9142 12.4142 23.25 12 23.25C11.5858 23.25 11.25 22.9142 11.25 22.5V21.5C11.25 21.0858 11.5858 20.75 12 20.75Z" fill="#BE8A5A"/>
<path d="M18.8943 18.3336C18.6014 18.0407 18.1266 18.0407 17.8337 18.3336C17.5408 18.6265 17.5408 19.1014 17.8337 19.3943L18.5408 20.1014C18.8337 20.3943 19.3085 20.3943 19.6014 20.1014C19.8943 19.8085 19.8943 19.3336 19.6014 19.0407L18.8943 18.3336Z" fill="#BE8A5A"/>
<path d="M3.75 12.5C3.75 12.9142 3.41421 13.25 3 13.25H2C1.58579 13.25 1.25 12.9142 1.25 12.5C1.25 12.0858 1.58579 11.75 2 11.75H3C3.41421 11.75 3.75 12.0858 3.75 12.5Z" fill="#BE8A5A"/>
<path d="M6.16627 19.3943C6.45916 19.1014 6.45916 18.6265 6.16627 18.3336C5.87337 18.0407 5.3985 18.0407 5.10561 18.3336L4.3985 19.0407C4.10561 19.3336 4.10561 19.8085 4.3985 20.1014C4.69139 20.3943 5.16627 20.3943 5.45916 20.1014L6.16627 19.3943Z" fill="#BE8A5A"/>
</svg>
